<svg width="1000" height="500" viewBox="0 0 1000 500" fill="none" xmlns="http://www.w3.org/2000/svg" style="background-color: #0c1015; border: 1px solid #161e29; border-radius: 12px; box-shadow: 0 20px 50px rgba(0,0,0,0.9);">
    <defs>
        <filter id="glow-green" x="-20%" y="-20%" width="140%" height="140%">
            <feGaussianBlur stdDeviation="3" result="blur" />
            <feComposite in="SourceGraphic" in2="blur" operator="over" />
        </filter>
        <filter id="glow-blue" x="-20%" y="-20%" width="140%" height="140%">
            <feGaussianBlur stdDeviation="2" result="blur" />
            <feComposite in="SourceGraphic" in2="blur" operator="over" />
        </filter>
        <linearGradient id="grad-cyan" x1="0%" y1="0%" x2="100%" y2="100%">
            <stop offset="0%" stop-color="#00FFCC" stop-opacity="0.8"/>
            <stop offset="100%" stop-color="#3b82f6" stop-opacity="0.2"/>
        </linearGradient>
    </defs>

    <g stroke="#121820" stroke-width="0.5">
        <path d="M0,50 L1000,50 M0,100 L1000,100 M0,150 L1000,150 M0,200 L1000,200 M0,250 L1000,250 M0,300 L1000,300 M0,350 L1000,350 M0,400 L1000,400 M0,450 L1000,450" />
        <path d="M100,0 L100,500 M200,0 L200,500 M300,0 L300,500 M400,0 L400,500 M500,0 L500,500 M600,0 L600,500 M700,0 L700,500 M800,0 L800,500 M900,0 L900,500" />
    </g>

    <g fill="#1a222d" stroke="#25303f" stroke-width="0.8" opacity="0.9">
        <path d="M420,160 L450,140 L480,130 L520,110 L580,100 L640,95 L720,100 L800,110 L840,120 L880,135 L860,170 L890,190 L850,230 L810,210 L820,240 L790,280 L760,290 L740,270 L720,290 L680,260 L620,270 L590,240 L530,250 L500,220 L440,210 Z" />
        <path d="M440,225 L490,220 L530,250 L540,280 L590,300 L560,350 L530,410 L520,430 L510,400 L470,330 L440,310 L420,280 L415,245 Z" />
        <path d="M80,110 L140,95 L220,90 L320,100 L380,120 L320,160 L280,180 L230,190 L240,220 L200,240 L160,260 L145,230 L160,190 L120,170 L90,150 Z" />
        <path d="M200,245 L220,240 L250,260 L280,290 L330,320 L350,350 L310,420 L280,460 L275,480 L260,450 L240,380 L210,310 L195,270 Z" />
        <path d="M780,360 L830,350 L870,365 L890,400 L870,430 L810,430 L770,390 Z" />
        <path d="M410,130 L420,120 L425,135 Z" /> <path d="M830,170 L845,185 L835,210 L825,180 Z" /> </g>

    <g style="mix-blend-mode: screen;">
        <path d="M750,185 Q735,230 740,285" fill="none" stroke="#00FFCC" stroke-width="2" filter="url(#glow-green)" />
        
        <path d="M750,185 Q600,200 470,310" fill="none" stroke="url(#grad-cyan)" stroke-width="1.8" stroke-dasharray="8,4" class="trade-path" />
        
        <path d="M750,185 Q520,240 300,390" fill="none" stroke="#3b82f6" stroke-width="1.5" stroke-dasharray="6,6" filter="url(#glow-blue)" />
        
        <path d="M750,185 Q770,250 765,310" fill="none" stroke="#00FFCC" stroke-width="2" />
        
        <path d="M750,185 Q630,190 525,220" fill="none" stroke="url(#grad-cyan)" stroke-width="1.5" stroke-dasharray="5,5" />

        <path d="M750,185 Q450,120 165,225" fill="none" stroke="#3b82f6" stroke-width="1.2" stroke-dasharray="8,4" />

        <path d="M750,185 L765,195" fill="none" stroke="#00FFCC" stroke-width="1.5" /> <path d="M750,185 Q790,175 835,185" fill="none" stroke="#00FFCC" stroke-width="1" stroke-dasharray="2,2" /> <path d="M750,185 L785,165" fill="none" stroke="#00FFCC" stroke-width="1" /> <path d="M750,185 Q710,220 715,250" fill="none" stroke="#00FFCC" stroke-width="1.2" /> <path d="M740,285 L735,270" fill="none" stroke="#00FFCC" stroke-width="1" /> <path d="M525,220 Q560,210 595,205" fill="none" stroke="#3b82f6" stroke-width="1" /> <path d="M525,220 Q440,160 415,130" fill="none" stroke="#3b82f6" stroke-width="1" stroke-dasharray="4,4" /> </g>

    <g font-family="monospace" font-weight="bold">
        <circle cx="750" cy="185" r="6" fill="#00FFCC" filter="url(#glow-green)" />
        <circle cx="750" cy="185" r="14" fill="none" stroke="#00FFCC" stroke-width="1" opacity="0.4" />
        <text x="765" y="180" fill="#ffffff" font-size="11">ASIAN HUB</text>
        <text x="765" y="192" fill="#00FFCC" font-size="8" font-weight="normal">BEIJING &amp; SHANGHAI</text>

        <circle cx="740" cy="285" r="4" fill="#00FFCC" />
        <text x="750" y="289" fill="#eaecef" font-size="9">SINGAPORE</text>

        <circle cx="765" cy="310" r="4" fill="#00FFCC" filter="url(#glow-green)" />
        <text x="775" y="314" fill="#00FFCC" font-size="9">JAKARTA (IDR)</text>

        <circle cx="470" cy="310" r="4" fill="#00FFCC" filter="url(#glow-green)" />
        <text x="415" y="330" fill="#00FFCC" font-size="10">LAGOS NODE</text>
        <text x="435" y="340" fill="#848e9c" font-size="8" font-weight="normal">(NGN Corridor)</text>

        <circle cx="300" cy="390" r="4" fill="#3b82f6" filter="url(#glow-blue)" />
        <text x="310" y="394" fill="#3b82f6" font-size="10">SÃO PAULO</text>
        <text x="310" y="404" fill="#848e9c" font-size="8" font-weight="normal">NODE (BRL)</text>

        <circle cx="525" cy="220" r="3.5" fill="#3b82f6" />
        <text x="490" y="215" fill="#eaecef" font-size="9">CAIRO</text>

        <circle cx="165" cy="225" r="3.5" fill="#3b82f6" />
        <text x="120" y="245" fill="#848e9c" font-size="9">MEXICO CITY (MXN)</text>

        <g fill="#61728a" font-size="8" font-weight="normal">
            <circle cx="765" cy="195" r="2" /><text x="772" y="198">Hong Kong</text>
            <circle cx="835" cy="185" r="2" /><text x="842" y="188">Tokyo</text>
            <circle cx="785" cy="165" r="2" /><text x="792" y="168">Seoul</text>
            <circle cx="715" cy="250" r="2" /><text x="660" y="254">Bangkok (THB)</text>
            <circle cx="735" cy="270" r="2" /><text x="685" y="274">Kuala Lumpur</text>
            <circle cx="595" cy="205" r="2" /><text x="602" y="208">Dubai</text>
            <circle cx="415" cy="130" r="2" /><text x="422" y="133">London</text>
        </g>
    </g>

    <g transform="translate(25, 395)">
        <rect width="185" height="85" rx="6" fill="#11161d" stroke="#1f2936" stroke-width="1" />
        
        <line x1="12" y1="20" x2="35" y2="20" stroke="#00FFCC" stroke-width="2" />
        <text x="45" y="24" fill="#eaecef" font-family="monospace" font-size="9" font-weight="bold">MAJOR TRADING TRUNK ROUTE</text>

        <line x1="12" y1="40" x2="35" y2="40" stroke="#3b82f6" stroke-width="1.5" stroke-dasharray="4,4" />
        <text x="45" y="44" fill="#848e9c" font-family="monospace" font-size="9">REGIONAL HUB CONNECTION</text>

        <circle cx="23" cy="60" r="4" fill="#00FFCC" filter="url(#glow-green)" />
        <text x="45" y="64" fill="#eaecef" font-family="monospace" font-size="9" font-weight="bold">INSTITUTIONAL NODE</text>
        
        <text x="12" y="78" fill="#313d4f" font-family="monospace" font-size="7">SYSTEM TELEMETRY: ACTIVE // ID 2026-M2</text>
    </g>

    <style>
        .trade-path {
            animation: linkFlow 25s linear infinite;
        }
        @keyframes linkFlow {
            to {
                stroke-dashoffset: -100;
            }
        }
    </style>
</svg>
